<?xml version="1.0" encoding="UTF-8"?>
<svg version="1.1" baseProfile="full" style="fill-opacity: 1; color-interpolation: auto; stroke: black; text-rendering: auto; stroke-linecap: square; stroke-miterlimit: 10; stroke-opacity: 1; shape-rendering: auto; fill: black; stroke-dasharray: none; font-weight: normal; stroke-width: 1; font-family: 'Dialog'; font-style: normal; stroke-linejoin: miter; stroke-dashoffset: 0pt; image-rendering: auto;" xmlns="http://www.w3.org/2000/svg" xmlns:xlink="http://www.w3.org/1999/xlink" xmlns:ev="http://www.w3.org/2001/xml-events" width="45" height="45">
  <defs id="genericDefs"/>
<g style="fill: black; stroke: darkgrey;"><path d="M10 41l-10 -20 10 -20 25 0 10 20 -10 20 Z"/></g>
<g style="fill: blue; font-family: monospace; stroke: white;" transform="translate(23,21)">

<!-- Admin -->
<line x1="-7" y1="4" x2="7" y2="4" stroke-width="1" />
<line x1="-7" y1="-5" x2="7" y2="-5" stroke-width="1" />
<path d="M -6 5 l -1 0 0 -12 1 -1" />
<path d="M 6 5 l 1 0 0 -12 -1 -1" />
<path d="M -4 6 l 0 -15 2 -2 4 0 2 2 0 15 Z" />
<path d="M 2 -6 l 0 -1 -2 -1 -2 1 0 1" />

</g>
</svg>
