<?xml version="1.0" encoding="UTF-8"?>
<svg version="1.1" baseProfile="full" style="fill-opacity: 1; color-interpolation: auto; stroke: black; text-rendering: auto; stroke-linecap: square; stroke-miterlimit: 10; stroke-opacity: 1; shape-rendering: auto; fill: black; stroke-dasharray: none; font-weight: normal; stroke-width: 1; font-family: 'Dialog'; font-style: normal; stroke-linejoin: miter; stroke-dashoffset: 0pt; image-rendering: auto;" xmlns="http://www.w3.org/2000/svg" xmlns:xlink="http://www.w3.org/1999/xlink" xmlns:ev="http://www.w3.org/2001/xml-events" width="45" height="45">
  <defs id="genericDefs"/>
<g style="fill: black; stroke: darkgrey;"><path d="M10 41l-10 -20 10 -20 25 0 10 20 -10 20 Z"/></g>
<g style="fill: yellow; font-family: monospace; stroke: green;" transform="translate(23,21)">

<!-- Carnivon BB -->
<path d="M -11 -11 l 1 -1 2 0 1 1 0 2 2 0 2 -3 5 0 2 3 2 0 0 -2 1 -1 2 0 1 1 0 19 -8 0 -2 2 -1 0 -2 -2 -8 0 Z"/>
<rect x="4" y="5" width="6" height="9" />
<rect x="-11" y="5" width="6" height="9" />

</g>
</svg>
