<?xml version="1.0" encoding="UTF-8"?>
<svg version="1.1" baseProfile="full" style="fill-opacity: 1; color-interpolation: auto; stroke: black; text-rendering: auto; stroke-linecap: square; stroke-miterlimit: 10; stroke-opacity: 1; shape-rendering: auto; fill: black; stroke-dasharray: none; font-weight: normal; stroke-width: 1; font-family: 'Dialog'; font-style: normal; stroke-linejoin: miter; stroke-dashoffset: 0pt; image-rendering: auto;" xmlns="http://www.w3.org/2000/svg" xmlns:xlink="http://www.w3.org/1999/xlink" xmlns:ev="http://www.w3.org/2001/xml-events" width="45" height="45">
  <defs id="genericDefs"/>
<g style="fill: black; stroke: darkgrey;"><path d="M10 41l-10 -20 10 -20 25 0 10 20 -10 20 Z"/></g>
<g style="fill: purple; font-family: monospace; stroke: slategrey;" transform="translate(23,21)">

<!-- Frax BCH -->
<path d="M1 -13l2 2 1 3 0 4 1 1 0 3 -1 1 0 5 2 0 0 6 -4 0 0 -3 -4 0 0 3 -4 0 0 -6 2 0 0 -5 -1 -1 0 -3 1 -1 0 -4 1 -3 2 -2 Z"/>

</g>
</svg>
