<?xml version="1.0" encoding="UTF-8"?>
<svg version="1.1" baseProfile="full" style="fill-opacity: 1; color-interpolation: auto; stroke: black; text-rendering: auto; stroke-linecap: square; stroke-miterlimit: 10; stroke-opacity: 1; shape-rendering: auto; fill: black; stroke-dasharray: none; font-weight: normal; stroke-width: 1; font-family: 'Dialog'; font-style: normal; stroke-linejoin: miter; stroke-dashoffset: 0pt; image-rendering: auto;" xmlns="http://www.w3.org/2000/svg" xmlns:xlink="http://www.w3.org/1999/xlink" xmlns:ev="http://www.w3.org/2001/xml-events" width="45" height="45">
  <defs id="genericDefs"/>
<g style="fill: black; stroke: darkgrey;"><path d="M10 41l-10 -20 10 -20 25 0 10 20 -10 20 Z"/></g>
<g style="fill: white; font-family: monospace; stroke: darkslategray;" transform="translate(23,21)">

<!-- Kli C8 -->
<path d="M -2.5 2 l 1 -10 -2 -2 0 -2 2 -2 4 0 2 2 0 2 -2 2 1 10 -5 0" /><!--boom-->
<rect x="-9.5" y="8" width="3" height="7" />
<rect x="7.5" y="8" width="3" height="7" />
<path d="M -7.5 5 l -2 3 20 0 -2 -3 -16 0" />
<path d="M -7.5 2 l 0 3 2 6 12 0 2 -6 0 -3 -16 0" />
<rect x="-3" y="8" width="7" height="5" />
<rect x="-1" y="-1" width="3" height="6" />

</g>
</svg>
