<?xml version="1.0" encoding="UTF-8"?>
<svg version="1.1" baseProfile="full" style="fill-opacity: 1; color-interpolation: auto; stroke: black; text-rendering: auto; stroke-linecap: square; stroke-miterlimit: 10; stroke-opacity: 1; shape-rendering: auto; fill: black; stroke-dasharray: none; font-weight: normal; stroke-width: 1; font-family: 'Dialog'; font-style: normal; stroke-linejoin: miter; stroke-dashoffset: 0pt; image-rendering: auto;" xmlns="http://www.w3.org/2000/svg" xmlns:xlink="http://www.w3.org/1999/xlink" xmlns:ev="http://www.w3.org/2001/xml-events" width="45" height="45">
  <defs id="genericDefs"/>
<g style="fill: black; stroke: darkgrey;"><path d="M10 41l-10 -20 10 -20 25 0 10 20 -10 20 Z"/></g>
<g style="fill: white; font-family: monospace; stroke: darkslategray;" transform="translate(23,21)">

<!-- Kli D5 -->
<path d="M -2 2 l 1 -8 -2 -2 0 -2 2 -2 3 0 2 2 0 2 -2 2 1 8 -4 0" /><!--boom-->
<rect x="-8.5" y="6" width="3" height="7" />
<rect x="6.5" y="6" width="3" height="7" />
<path d="M -6.5 2 l 0 2 2 6 10 0 2 -6 0 -2 -14 0" />
<rect x="-3" y="7" width="7" height="5" />

</g>
</svg>
