<?xml version="1.0" encoding="UTF-8"?>
<svg version="1.1" baseProfile="full" style="fill-opacity: 1; color-interpolation: auto; stroke: black; text-rendering: auto; stroke-linecap: square; stroke-miterlimit: 10; stroke-opacity: 1; shape-rendering: auto; fill: black; stroke-dasharray: none; font-weight: normal; stroke-width: 1; font-family: 'Dialog'; font-style: normal; stroke-linejoin: miter; stroke-dashoffset: 0pt; image-rendering: auto;" xmlns="http://www.w3.org/2000/svg" xmlns:xlink="http://www.w3.org/1999/xlink" xmlns:ev="http://www.w3.org/2001/xml-events" width="45" height="45">
  <defs id="genericDefs"/>
<g style="fill: black; stroke: darkgrey;"><path d="M10 41l-10 -20 10 -20 25 0 10 20 -10 20 Z"/></g>
<g style="fill: white; font-family: monospace; stroke: darkslategray;" transform="translate(23,21)">

<!-- Kli F6 -->
<path d="M -3 -9 c 0 -3 7 -3 7 0 l 0 1 -3 3 2 7 0 1 -5 0 0 -1 2 -7 -3 -3 0 -1" /><!--boom-->
<rect x="-9" y="8" width="4" height="5" />
<rect x="6" y="8" width="4" height="5" />
<path d="M -5 3 l 0 4 1 5 9 0 1 -5 0 -4 -11 0" />
<rect x="-1" y="1" width="3" height="5" />

</g>
</svg>
