<?xml version="1.0" encoding="UTF-8"?>
<svg version="1.1" baseProfile="full" style="fill-opacity: 1; color-interpolation: auto; stroke: black; text-rendering: auto; stroke-linecap: square; stroke-miterlimit: 10; stroke-opacity: 1; shape-rendering: auto; fill: black; stroke-dasharray: none; font-weight: normal; stroke-width: 1; font-family: 'Dialog'; font-style: normal; stroke-linejoin: miter; stroke-dashoffset: 0pt; image-rendering: auto;" xmlns="http://www.w3.org/2000/svg" xmlns:xlink="http://www.w3.org/1999/xlink" xmlns:ev="http://www.w3.org/2001/xml-events" width="45" height="45">
  <defs id="genericDefs"/>
<g style="fill: black; stroke: darkgrey;"><path d="M10 41l-10 -20 10 -20 25 0 10 20 -10 20 Z"/></g>
<g style="fill: black; font-family: monospace; stroke: red;" transform="translate(23,21)">

<!-- Rom SPA -->
<path d="M -4 -12 l 0 1 2 2 0 4 -1 1 -7 0 0 8 19 0 0 -8 -7 0 -1 -1 0 -4 2 -2 0 -1 q -3.5 -5 -7 0 " />
<rect x="-2" y="-3" width="3" height="8" />
<rect x="-11" y="-7" width="2" height="9" />
<rect x="8" y="-7" width="2" height="9" />
<rect x="-12" y="2" width="3" height="8" />
<rect x="8" y="2" width="3" height="8" />

</g>
</svg>
