<?xml version="1.0" encoding="UTF-8"?>
<svg version="1.1" baseProfile="full" style="fill-opacity: 1; color-interpolation: auto; stroke: black; text-rendering: auto; stroke-linecap: square; stroke-miterlimit: 10; stroke-opacity: 1; shape-rendering: auto; fill: black; stroke-dasharray: none; font-weight: normal; stroke-width: 1; font-family: 'Dialog'; font-style: normal; stroke-linejoin: miter; stroke-dashoffset: 0pt; image-rendering: auto;" xmlns="http://www.w3.org/2000/svg" xmlns:xlink="http://www.w3.org/1999/xlink" xmlns:ev="http://www.w3.org/2001/xml-events" width="45" height="45">
  <defs id="genericDefs"/>
<g style="fill: black; stroke: darkgrey;"><path d="M10 41l-10 -20 10 -20 25 0 10 20 -10 20 Z"/></g>
<g style="fill: black; font-family: monospace; stroke: white;" transform="translate(23,21)">

<!-- Kzinti Cruiser -->
<rect x="-7" y="4" width="3" height="8" />
<rect x="3" y="4" width="3" height="8" />
<path d="M -2 -15 l -4 3 0 4 2 2 7 0 2 -2 0 -4 -4 -3 Z" />
<rect x="-6" y="-6" width="11" height="12" />
<rect x="-12" y="-6" width="5" height="4" />
<rect x="6" y="-6" width="5" height="4" />
<rect x="-9" y="1" width="3" height="4" />
<rect x="6" y="1" width="3" height="4" />
<rect x="-2" y="4" width="3" height="8" />

</g>
</svg>
