<?xml version="1.0" encoding="UTF-8"?>
<svg version="1.1" baseProfile="full" style="fill-opacity: 1; color-interpolation: auto; stroke: black; text-rendering: auto; stroke-linecap: square; stroke-miterlimit: 10; stroke-opacity: 1; shape-rendering: auto; fill: black; stroke-dasharray: none; font-weight: normal; stroke-width: 1; font-family: 'Dialog'; font-style: normal; stroke-linejoin: miter; stroke-dashoffset: 0pt; image-rendering: auto;" xmlns="http://www.w3.org/2000/svg" xmlns:xlink="http://www.w3.org/1999/xlink" xmlns:ev="http://www.w3.org/2001/xml-events" width="45" height="45">
  <defs id="genericDefs"/>
<g style="fill: black; stroke: darkgrey;"><path d="M10 41l-10 -20 10 -20 25 0 10 20 -10 20 Z"/></g>
<g style="fill: black; font-family: monospace; stroke: white;" transform="translate(23,21)">

<!-- Kzinti Destroyer -->
<path d="M -2 -10 l -1 1 0 4 6 0 0 -4 -1 -1 Z" />
<path d="M -3 -4 l -3 3 12 0 -3 -3 Z" />
<rect x="-3" y="-5" width="6" height="12" />
<rect x="-8" y="-4" width="2" height="4" />
<rect x="6" y="-4" width="2" height="4" />
<rect x="-6" y="4" width="3" height="3" />
<rect x="4" y="4" width="3" height="3" />
<rect x="-6" y="8" width="3" height="4" />
<rect x="-1" y="8" width="3" height="4" />
<rect x="4" y="8" width="3" height="4" />

</g>
</svg>
