<?xml version="1.0" encoding="UTF-8"?>
<svg version="1.1" baseProfile="full" style="fill-opacity: 1; color-interpolation: auto; stroke: black; text-rendering: auto; stroke-linecap: square; stroke-miterlimit: 10; stroke-opacity: 1; shape-rendering: auto; fill: black; stroke-dasharray: none; font-weight: normal; stroke-width: 1; font-family: 'Dialog'; font-style: normal; stroke-linejoin: miter; stroke-dashoffset: 0pt; image-rendering: auto;" xmlns="http://www.w3.org/2000/svg" xmlns:xlink="http://www.w3.org/1999/xlink" xmlns:ev="http://www.w3.org/2001/xml-events" width="45" height="45">
  <defs id="genericDefs"/>
<g style="fill: black; stroke: darkgrey;"><path d="M10 41l-10 -20 10 -20 25 0 10 20 -10 20 Z"/></g>
<g style="fill: black; font-family: monospace; stroke: white;" transform="translate(23,21)">

<!-- Kzinti Dreadnought -->
<rect x="-7" y="9" width="4" height="7" />
<rect x="3" y="9" width="4" height="7" />
<path d="M -4 -18 l -2 3 -1 3 2 3 10 0 2 -3 -1 -3 -2 -3  Z" />
<rect x="-8" y="-6" width="16" height="2" />
<rect x="-5" y="-9" width="10" height="20" />
<rect x="-8" y="7" width="3" height="3" />
<rect x="5" y="7" width="3" height="3" />
<rect x="-10" y="-8" width="2" height="6" />
<rect x="8" y="-8" width="2" height="6" />
<rect x="-2" y="9" width="4" height="7" />

</g>
</svg>
