<?xml version="1.0" encoding="UTF-8"?>
<svg version="1.1" baseProfile="full" style="fill-opacity: 1; color-interpolation: auto; stroke: black; text-rendering: auto; stroke-linecap: square; stroke-miterlimit: 10; stroke-opacity: 1; shape-rendering: auto; fill: black; stroke-dasharray: none; font-weight: normal; stroke-width: 1; font-family: 'Dialog'; font-style: normal; stroke-linejoin: miter; stroke-dashoffset: 0pt; image-rendering: auto;" xmlns="http://www.w3.org/2000/svg" xmlns:xlink="http://www.w3.org/1999/xlink" xmlns:ev="http://www.w3.org/2001/xml-events" width="45" height="45">
  <defs id="genericDefs"/>
<g style="fill: black; stroke: darkgrey;"><path d="M10 41l-10 -20 10 -20 25 0 10 20 -10 20 Z"/></g>
<g style="fill: royalblue; font-family: monospace; stroke: darkslategray;" transform="translate(23,21)" >

<!-- Peladine FF -->
<path d="M 0 -4 l -5 0 -3 2 0 3 14 0 0 -3 -3 -2 Z" />
<path d="M 0 -9 l -2 0 q -3 1 -3 5 l 0 7 q 4 7 8 0 l 0 -7 q 0 -4 -3 -5 Z" /><!--Body-->
<path d="M -9 -5 q -1 0 -1 3 l 0 4 2 0 0 -4 q 0 -3 -1 -3 Z" />
<path d="M 7 -5 q -1 0 -1 3 l 0 4 2 0 0 -4 q 0 -3 -1 -3 Z" />

</g>
</svg>
