<?xml version="1.0" encoding="UTF-8"?>
<svg version="1.1" baseProfile="full" style="fill-opacity: 1; color-interpolation: auto; stroke: black; text-rendering: auto; stroke-linecap: square; stroke-miterlimit: 10; stroke-opacity: 1; shape-rendering: auto; fill: black; stroke-dasharray: none; font-weight: normal; stroke-width: 1; font-family: 'Dialog'; font-style: normal; stroke-linejoin: miter; stroke-dashoffset: 0pt; image-rendering: auto;" xmlns="http://www.w3.org/2000/svg" xmlns:xlink="http://www.w3.org/1999/xlink" xmlns:ev="http://www.w3.org/2001/xml-events" width="45" height="45">
  <defs id="genericDefs"/>
<g style="fill: black; stroke: darkgrey;"><path d="M10 41l-10 -20 10 -20 25 0 10 20 -10 20 Z"/></g>
<g style="fill: black; font-family: monospace; stroke: red;" transform="translate(23,21)">

<!-- Rom K4R -->
<path d="M -3 -8 c 0 -3 7 -3 7 0 l 0 1 -3 3 2 6 0 1 -5 0 0 -1 2 -6 -3 -3 0 -1" /><!--boom-->
<rect x="-8" y="7" width="4" height="5" />
<rect x="5" y="7" width="4" height="5" />
<path d="M -6 3 l 0 3 3 5 7 0 3 -5 0 -3 -13 0" />

</g>
</svg>
