<?xml version="1.0" encoding="UTF-8"?>
<svg version="1.1" baseProfile="full" style="fill-opacity: 1; color-interpolation: auto; stroke: black; text-rendering: auto; stroke-linecap: square; stroke-miterlimit: 10; stroke-opacity: 1; shape-rendering: auto; fill: black; stroke-dasharray: none; font-weight: normal; stroke-width: 1; font-family: 'Dialog'; font-style: normal; stroke-linejoin: miter; stroke-dashoffset: 0pt; image-rendering: auto;" xmlns="http://www.w3.org/2000/svg" xmlns:xlink="http://www.w3.org/1999/xlink" xmlns:ev="http://www.w3.org/2001/xml-events" width="45" height="45">
  <defs id="genericDefs"/>
<g style="fill: black; stroke: darkgrey;"><path d="M10 41l-10 -20 10 -20 25 0 10 20 -10 20 Z"/></g>
<g style="fill: black; font-family: monospace; stroke: red;" transform="translate(23,21)">

<!-- Rom SNA -->
<path d="M -4 -3 c 0 -5 8 -5 8 0 l 0 3 2 -3 0 2 -3 7 -6 0 -3 -7 0 -2 2 3 0 3" />
<path d="M -4 -3 c 0 -5 8 -5 8 0 l -1 10 -6 0 -1 -10" />
<path d="M -6 -4 c 0 -3 -2.5 -3 -2.5 0 l 0 7 2.5 0 0 -7" />
<path d="M 9 -4 c 0 -3 -2.5 -3 -2.5 0 l 0 7 2.5 0 0 -7" />

</g>
</svg>
