<?xml version="1.0" encoding="UTF-8"?>
<svg version="1.1" baseProfile="full" style="fill-opacity: 1; color-interpolation: auto; stroke: black; text-rendering: auto; stroke-linecap: square; stroke-miterlimit: 10; stroke-opacity: 1; shape-rendering: auto; fill: black; stroke-dasharray: none; font-weight: normal; stroke-width: 1; font-family: 'Dialog'; font-style: normal; stroke-linejoin: miter; stroke-dashoffset: 0pt; image-rendering: auto;" xmlns="http://www.w3.org/2000/svg" xmlns:xlink="http://www.w3.org/1999/xlink" xmlns:ev="http://www.w3.org/2001/xml-events" width="45" height="45">
  <defs id="genericDefs"/>
<g style="fill: black; stroke: darkgrey;"><path d="M10 41l-10 -20 10 -20 25 0 10 20 -10 20 Z"/></g>
<g style="fill: black; font-family: monospace; stroke: red;" transform="translate(23,21)">

<!-- Rom SBH -->
<path d="M -3.5 -10 l 0 1 2 2 -1 5 -2 2 -3 0 0 8 14 0 0 -8 -3 0 -2 -2 -1 -5 2 -2 0 -1 q -3 -3.5 -6 0 " />
<rect x="-10.5" y="2" width="3" height="6" />
<rect x="6.5" y="2" width="3" height="6" />
<rect x="-1.5" y="-1" width="2" height="5" />

</g>
</svg>
