<?xml version="1.0" encoding="UTF-8"?>
<svg version="1.1" baseProfile="full" style="fill-opacity: 1; color-interpolation: auto; stroke: black; text-rendering: auto; stroke-linecap: square; stroke-miterlimit: 10; stroke-opacity: 1; shape-rendering: auto; fill: black; stroke-dasharray: none; font-weight: normal; stroke-width: 1; font-family: 'Dialog'; font-style: normal; stroke-linejoin: miter; stroke-dashoffset: 0pt; image-rendering: auto;" xmlns="http://www.w3.org/2000/svg" xmlns:xlink="http://www.w3.org/1999/xlink" xmlns:ev="http://www.w3.org/2001/xml-events" width="45" height="45">
  <defs id="genericDefs"/>
<g style="fill: black; stroke: darkgrey;"><path d="M10 41l-10 -20 10 -20 25 0 10 20 -10 20 Z"/></g>
<g style="fill: black; font-family: monospace; stroke: red;" transform="translate(23,21)">

<!-- Rom WE -->
<path d="M -6 -6 c 0 -5 12 -5 12 0 l 2 -2 0 11 -3 7 -10 0 -3 -7 0 -11 2 2" />
<path d="M -6 -6 c 0 -5 12 -5 12 0 l 0 9 -1 7 -10 0 -1 -7 0 -9" />
<path d="M -8 -8 c 0 -3 -4 -3 -4 0 l 0 17 1 1 2 0 1 -1 0 -17" />
<path d="M 12 -8 c 0 -3 -4 -3 -4 0 l 0 17 1 1 2 0 1 -1 0 -17" />

</g>
</svg>
