<?xml version="1.0" encoding="UTF-8"?>
<svg version="1.1" baseProfile="full" style="fill-opacity: 1; color-interpolation: auto; stroke: black; text-rendering: auto; stroke-linecap: square; stroke-miterlimit: 10; stroke-opacity: 1; shape-rendering: auto; fill: black; stroke-dasharray: none; font-weight: normal; stroke-width: 1; font-family: 'Dialog'; font-style: normal; stroke-linejoin: miter; stroke-dashoffset: 0pt; image-rendering: auto;" xmlns="http://www.w3.org/2000/svg" xmlns:xlink="http://www.w3.org/1999/xlink" xmlns:ev="http://www.w3.org/2001/xml-events" width="45" height="45">
  <defs id="genericDefs"/>
<g style="fill: black; stroke: darkgrey;"><path d="M10 41l-10 -20 10 -20 25 0 10 20 -10 20 Z"/></g>
<g style="fill: red; font-family: monospace; stroke: yellow;" transform="translate(23,21)">

<!-- WYN Aux Carrier -->
<rect x="-9" y="-7" width="18" height="3" />
<path d="M -4 -15 l -1 1 0 5 10 0 0 -5 -1 -1 Z" />
<path d="M -8 2 l 0 7 4 0 0 -4 2 2 4 0 2 -2 0 4 4 0 0 -7 Z" />
<rect x="-7" y="-9" width="7" height="12" />
<rect x="0" y="-9" width="7" height="12" />

</g>
</svg>
