<?xml version="1.0" encoding="UTF-8"?>
<svg version="1.1" baseProfile="full" style="fill-opacity: 1; color-interpolation: auto; stroke: black; text-rendering: auto; stroke-linecap: square; stroke-miterlimit: 10; stroke-opacity: 1; shape-rendering: auto; fill: black; stroke-dasharray: none; font-weight: normal; stroke-width: 1; font-family: 'Dialog'; font-style: normal; stroke-linejoin: miter; stroke-dashoffset: 0pt; image-rendering: auto;" xmlns="http://www.w3.org/2000/svg" xmlns:xlink="http://www.w3.org/1999/xlink" xmlns:ev="http://www.w3.org/2001/xml-events" width="45" height="45">
  <defs id="genericDefs"/>
<g style="fill: black; stroke: darkgrey;"><path d="M10 41l-10 -20 10 -20 25 0 10 20 -10 20 Z"/></g>
<g style="fill: red; font-family: monospace; stroke: yellow;" transform="translate(25,23)">

<!-- WYN-Orion Battle Raider -->
<path d="M -7 -8 l -4 4 0 2 19 0 0 -2 -4 -4  Z" />
<path d="M -7 2 l -2 0 0 7 5 0 0 -4 1 0 1 1 1 0 1 -1 1 0 0 4 5 0 0 -7 -2 0 0 -12 -5.5 -6 -5.5 6 Z" />
</g>
</svg>
